<svg width="476" height="512" viewBox="0 0 476 512" fill="currentColor" xmlns="http://www.w3.org/2000/svg">
<path fill-rule="evenodd" clip-rule="evenodd" d="M220.888 1.957C211.759 3.883 198.207 9.698 190.521 14.986C179.205 22.771 169.614 33.554 160.151 49.132C154.16 58.992 105.975 153.859 81.594 203.794C48.766 271.027 18.49 335.847 9.93696 357.208C-3.19104 389.994 -3.01404 420.158 10.476 448.698C16.288 460.994 21.015 467.942 29.998 477.392C40.16 488.082 48.43 494.172 61.5 500.59C77.994 508.69 88.938 511.259 107.5 511.385C124.132 511.499 132.583 510.144 148.923 504.746C173.083 496.764 198.229 479.78 224.35 453.802C231.43 446.761 237.317 441 237.432 441C237.548 441 243.425 446.684 250.494 453.63C264.525 467.419 279.039 479.432 291.5 487.57C326.687 510.551 365.584 517.593 398.29 506.905C445.579 491.452 475.613 449.189 475.326 398.5C475.205 377.031 472.446 368.876 446.234 312.5C397.403 207.477 324.085 60.588 310.961 41.489C303.018 29.931 290.078 17.248 280.544 11.676C262.242 0.980996 241.519 -2.395 220.888 1.957ZM252.356 35.584C265.359 38.937 276.195 46.841 284.69 59.17C298.918 79.819 384.191 252.556 428.014 349.5C440.599 377.34 443 385.832 443 402.5C443 416.066 440.795 425.63 434.824 437.96C430.382 447.133 428.631 449.548 420.59 457.59C412.533 465.646 410.151 467.372 400.96 471.807C386.903 478.591 378.145 480.423 363.11 479.722C356.264 479.403 348.217 478.323 343.5 477.09C331.857 474.048 313.357 464.464 300.5 454.816C290.384 447.224 260 418.76 260 416.875C260 416.428 263.264 411.886 267.253 406.781C306.798 356.179 327.155 306.968 324.663 268C323.879 255.746 321.794 247.646 316.554 236.5C302.526 206.662 273.317 189 238 189C212.165 189 192.794 196.967 174.852 214.972C166.328 223.526 164.604 225.883 160.045 235.218C152.73 250.194 150.625 260.881 151.322 279.5C152.148 301.542 157.843 321.042 171.473 348.5C180.211 366.103 192.034 384.947 206.065 403.634L216.133 417.045L213.175 420.772C209.332 425.616 192.306 442.063 184 448.955C169.44 461.037 150.72 471.8 136.425 476.31C92.252 490.243 49.174 468.697 35.842 426C33.852 419.627 33.501 416.397 33.51 404.5C33.524 383.83 34.758 380.093 58.283 329.5C106.902 224.94 180.293 77.975 193.247 59.236C204.651 42.741 219.891 34.239 238.356 34.071C242.676 34.032 248.976 34.713 252.356 35.584ZM251.999 221.561C265.559 224.757 275.534 231.53 282.899 242.541C289.771 252.816 291.489 259.535 291.45 276C291.423 287.552 291.025 290.931 288.689 299.414C282.127 323.252 267.459 350.847 245.589 380.5C241.938 385.45 238.545 389.5 238.049 389.5C236.769 389.5 225.215 373.966 215.854 359.659C185.285 312.936 176.135 270.322 191.268 245.165C197.79 234.323 211.364 224.565 224.272 221.437C231.526 219.679 244.255 219.736 251.999 221.561Z" fill="currentColor"/>
</svg>
