<svg width="1021" height="1024" viewBox="0 0 1021 1024" fill="currentColor" xmlns="http://www.w3.org/2000/svg">
<path fill-rule="evenodd" clip-rule="evenodd" d="M507.672 0.982537C525.492 0.84216 546.54 1.68442 558.887 2.94782C570.534 4.07084 587.231 6.31687 596.071 7.86102C604.911 9.54555 620.066 12.7742 629.747 15.0203C639.429 17.2663 657.671 22.741 670.439 26.9523C683.208 31.1636 700.187 37.621 708.325 41.1304C716.463 44.6399 731.337 51.6587 741.299 56.5719C751.262 61.6255 767.819 70.6096 777.782 76.6459C787.744 82.6821 803.6 93.07 812.861 99.8081C822.122 106.687 836.996 118.338 845.835 125.778C854.675 133.218 869.128 146.975 877.968 156.099C886.808 165.224 898.735 178.56 904.628 185.438C910.381 192.317 919.362 203.828 924.413 210.706C929.605 217.585 938.585 231.061 944.618 240.606C950.512 250.012 960.334 267.699 966.368 279.912C972.401 291.985 980.54 309.812 984.469 319.498C988.257 329.185 994.291 345.889 997.799 356.698C1001.31 367.507 1006.08 385.195 1008.46 396.004C1010.71 406.813 1013.94 424.22 1015.48 434.608C1017.02 444.996 1018.99 464.649 1019.97 478.125C1020.95 492.724 1021.23 513.5 1020.81 529.362C1020.25 544.102 1019.27 562.632 1018.43 570.774C1017.58 578.916 1015.34 594.638 1013.37 605.868C1011.41 617.098 1008.18 632.54 1006.36 640.26C1004.39 647.981 1000.46 661.317 997.799 669.74C995.133 678.162 989.941 692.481 986.573 701.325C983.065 710.168 975.909 726.312 970.577 737.121C965.245 747.93 955.844 765.337 949.53 775.725C943.215 786.112 934.235 800.01 929.605 806.608C924.834 813.205 916.976 823.593 912.065 829.77C907.154 835.946 896.911 848.019 889.474 856.441C881.897 864.864 868.146 878.902 859.025 887.324C849.764 895.887 838.82 905.714 834.61 909.223C830.401 912.733 823.104 918.488 818.474 921.998C813.843 925.507 804.723 932.105 798.128 936.737C791.533 941.229 779.045 949.231 770.345 954.425C761.786 959.619 747.473 967.339 738.914 971.691C730.214 976.043 715.762 982.641 706.922 986.29C698.082 989.94 681.945 995.836 671.141 999.345C660.337 1002.85 645.182 1007.35 637.465 1009.31C629.747 1011.14 618.101 1013.8 611.506 1014.93C604.911 1016.19 592.564 1018.16 584.144 1019.28C575.725 1020.4 555.099 1022.09 538.542 1023.07C514.688 1024.33 502.34 1024.33 479.608 1022.93C463.753 1021.95 444.249 1020.26 436.11 1019.14C427.972 1018.02 416.045 1016.19 409.45 1014.93C402.855 1013.8 389.946 1010.86 380.685 1008.61C371.424 1006.22 357.813 1002.43 350.517 1000.05C343.22 997.661 329.469 992.748 319.928 988.958C310.527 985.167 294.811 978.008 284.989 973.095C275.026 968.182 262.258 961.303 256.505 957.934C250.752 954.425 239.667 947.546 231.949 942.493C224.232 937.439 212.165 929.016 205.289 923.823C198.413 918.488 188.591 910.767 183.54 906.416C178.488 902.204 167.824 892.659 159.826 885.219C151.828 877.919 139.48 865.285 132.324 857.143C125.308 849.001 114.925 836.789 109.312 829.77C103.7 822.751 92.6145 807.309 84.7568 795.377C76.7587 783.445 67.4978 768.565 63.9899 762.389C60.482 756.212 54.308 744.561 50.2389 736.419C46.1697 728.277 40.136 715.082 36.9088 706.94C33.5412 698.798 28.2091 684.339 24.9818 674.653C21.8949 664.967 17.4047 649.806 15.1596 640.962C12.9146 632.119 9.40666 615.414 7.44222 603.762C5.6181 592.251 3.37303 576.389 2.53113 568.668C1.82955 560.947 0.847327 543.26 0.28606 529.362C-0.275207 514.061 0.00542635 494.409 0.987644 479.529C1.96986 466.052 3.9343 446.399 5.47778 436.012C6.88095 425.624 8.84539 413.551 9.68729 409.34C10.5292 405.129 13.3355 392.775 16.0015 381.966C18.6676 371.157 23.1577 355.716 25.964 347.574C28.6301 339.432 33.6815 326.237 36.9088 318.095C40.136 309.953 47.0116 295.073 51.9227 285.106C56.9741 275.139 64.4109 261.102 68.4801 254.223C72.6896 247.345 79.7054 235.834 84.4762 228.955C89.1066 222.077 96.9644 210.987 102.016 204.389C106.927 197.791 116.468 186.14 123.063 178.419C129.658 170.699 140.884 158.767 147.759 151.748C154.635 144.869 166.982 133.358 175.121 126.48C183.259 119.461 196.168 108.933 203.886 103.177C211.603 97.2813 227.038 86.6126 238.263 79.5938C249.489 72.4345 268.993 61.3447 281.762 55.0278C294.531 48.5704 314.455 39.7267 325.961 35.2346C337.467 30.7425 353.885 25.1274 362.444 22.4603C371.003 19.9335 382.93 16.5644 389.104 15.0203C395.278 13.4761 409.45 10.5282 420.675 8.56291C431.901 6.45725 449.3 3.93046 459.262 2.94782C469.225 1.96518 491.114 1.12291 507.672 0.982537V0.982537ZM439.618 55.7297C427.972 57.4142 407.907 61.4851 394.717 64.7138C381.527 68.0829 362.304 73.9787 351.92 77.7689C341.537 81.6994 327.645 87.0338 321.05 89.9817C314.455 92.7893 302.529 98.5447 294.39 102.896C286.252 107.248 273.904 114.267 267.028 118.619C260.153 122.83 249.068 130.13 242.473 134.762C235.878 139.394 225.214 147.536 218.619 152.871C212.024 158.065 199.536 169.295 190.696 177.437C181.856 185.719 168.666 199.336 161.37 207.899C154.073 216.462 143.69 229.376 138.077 236.676C132.605 243.976 123.204 257.873 117.17 267.559C111.136 277.245 102.156 292.967 97.245 302.653C92.3339 312.339 85.4584 327.079 82.0908 335.642C78.5829 344.205 73.2508 359.366 70.1639 369.332C67.0769 379.299 62.8674 394.881 60.9029 403.725C58.9385 412.569 55.9919 428.431 54.4484 438.819C52.9049 449.207 50.9404 469.421 50.0985 483.74C49.2566 498.058 48.976 519.536 49.397 531.468C49.9582 543.4 51.3614 560.807 52.4839 570.072C53.6065 579.337 56.5531 596.463 58.7982 607.974C61.1836 619.625 65.2528 636.19 67.9188 644.893C70.5848 653.456 75.0749 667.073 78.1619 675.074C81.1086 682.935 86.8616 696.692 90.9307 705.536C94.9999 714.38 101.455 727.294 105.383 734.313C109.172 741.332 117.591 754.808 123.905 764.494C130.219 774.18 140.884 789.06 147.478 797.483C154.073 805.906 166.281 820.364 174.7 829.349C182.979 838.333 196.589 851.809 204.868 859.249C213.287 866.549 225.916 876.936 232.931 882.271C240.088 887.465 252.014 895.747 259.311 900.52C266.607 905.433 278.675 912.733 285.971 916.804C293.268 921.015 301.687 925.367 304.493 926.49L309.825 928.736C308.562 911.89 307.019 896.028 305.475 882.832C304.072 869.497 301.546 849.282 300.003 837.912C298.459 826.401 294.531 804.221 291.444 788.358C288.357 772.496 283.305 748.912 280.078 735.717C276.991 722.522 272.08 703.009 269.133 692.2C266.046 681.391 257.627 652.333 250.05 627.627C242.613 602.92 232.791 569.37 228.161 553.227C223.67 537.083 217.777 513.359 214.971 500.585C212.305 487.811 208.937 468.298 207.534 457.068C206.131 445.838 204.868 426.887 204.728 414.955C204.587 401.76 205.429 388.003 206.552 379.861C207.674 372.561 210.34 360.769 212.305 353.891C214.41 347.012 218.198 336.484 220.864 330.729C223.53 324.973 229.844 314.164 234.756 306.865C239.667 299.565 247.103 290.019 251.173 285.808C255.382 281.597 260.854 276.262 263.52 274.016C266.467 271.63 267.309 270.366 265.625 271.068C264.082 271.489 260.293 272.612 257.206 273.455C254.119 274.297 250.471 274.578 249.068 274.157C247.805 273.595 246.682 271.77 246.682 270.086C246.542 268.261 249.348 263.207 252.576 258.575C256.505 253.24 261.977 248.187 268.432 243.835C274.746 239.764 284.287 235.413 294.39 231.903L310.527 226.428C297.477 219.69 290.461 215.479 286.673 212.671C282.744 209.864 277.973 205.653 275.728 203.126C273.623 200.739 271.378 196.388 270.536 193.58C269.835 190.632 269.694 186.421 270.256 184.034C270.817 181.788 272.781 178.279 274.746 176.314C276.851 174.348 282.183 171.681 286.673 170.277C293.268 168.172 301.546 167.47 324.558 166.908C342.94 166.347 360.199 166.768 370.161 167.751C379.001 168.733 393.173 170.979 401.733 172.804C410.292 174.77 422.92 178.139 429.796 180.525C436.671 182.911 448.177 187.965 455.053 191.755C461.929 195.545 472.452 201.862 478.205 205.933C483.958 210.004 495.324 219.831 503.462 227.551C516.792 240.466 519.178 242.151 528.018 245.099C533.49 246.783 542.611 250.714 548.364 253.521C554.117 256.469 561.974 261.242 565.903 264.049C569.692 266.997 575.725 271.911 579.233 275.139C582.741 278.368 589.196 284.966 593.826 290.019C598.316 295.073 606.174 305.461 611.226 313.181C616.277 320.902 622.732 332.273 625.678 338.449C628.485 344.626 632.834 355.435 635.36 362.314C637.746 369.192 641.534 382.528 643.779 391.793C646.024 401.058 649.532 420.71 651.497 435.31C653.601 449.909 655.425 463.385 655.846 465.21C656.408 468.298 656.688 468.158 682.647 459.314C697.24 454.401 724.181 444.575 742.703 437.696C761.224 430.677 780.167 424.22 784.798 423.378C789.428 422.395 798.549 421.974 805.144 422.255C812.861 422.676 819.316 423.939 823.385 425.624C826.893 427.168 832.786 431.239 836.434 434.748C840.082 438.117 844.432 443.592 845.976 446.961C847.379 450.19 848.642 455.243 848.642 458.191C848.642 460.999 847.239 466.193 845.414 469.562C843.731 473.071 839.521 478.406 836.013 481.353C832.505 484.442 825.349 489.776 819.877 493.286C814.404 496.795 801.215 503.954 790.41 509.148C779.606 514.342 762.908 521.782 753.226 525.572C743.544 529.362 725.584 535.82 713.236 539.75C700.888 543.821 680.963 549.577 669.036 552.525C657.109 555.473 642.516 558.982 636.763 560.105C631.01 561.368 618.382 563.614 608.7 565.159C599.018 566.703 583.443 568.949 573.901 570.072C564.5 571.195 554.117 573.301 551.03 574.704C547.802 575.968 544.575 578.214 544.014 579.618C543.172 581.162 543.593 582.987 545.136 584.952C546.54 586.636 550.749 589.444 554.678 591.128C558.467 592.813 567.306 595.62 574.322 597.305C581.338 599.13 592.984 601.376 600.281 602.499C607.577 603.622 625.257 605.026 639.57 605.447C655.987 606.008 671.702 605.587 682.366 604.605C691.627 603.622 705.519 601.657 713.236 600.113C720.953 598.709 734.284 595.34 742.703 592.673C751.122 590.005 764.732 584.811 772.871 581.162C783.535 576.389 789.288 574.564 793.918 574.564C799.391 574.564 800.794 575.266 804.723 579.758C808.651 583.969 809.353 585.934 809.353 591.83C809.353 595.901 808.231 601.095 806.687 604.184C805.284 606.991 800.373 612.887 795.883 617.239C791.252 621.59 784.096 627.346 779.887 630.013C775.677 632.82 768.381 636.751 763.75 638.857C759.12 640.962 749.999 644.472 743.404 646.718C736.809 648.964 725.865 652.052 718.849 653.596C711.833 655 698.643 657.246 689.382 658.369C679.42 659.773 662.441 660.615 647.989 660.615C632.834 660.615 614.874 659.492 600.983 657.808C588.635 656.404 570.253 654.017 560.291 652.754C550.328 651.491 539.804 650.789 537.138 651.21C533.49 651.912 531.806 653.035 530.543 655.983C529.702 658.088 528.439 663.142 528.018 666.932C527.597 670.863 527.877 681.391 528.719 690.516C529.421 699.5 531.385 713.678 533.069 722.1C534.613 730.383 538.121 744.561 540.787 753.685C543.453 762.669 547.101 773.338 549.065 777.128C551.31 781.62 553.696 784.428 555.66 784.989C557.484 785.411 562.395 784.428 566.605 782.743C570.814 781.059 590.038 771.654 609.402 761.967C642.937 744.982 644.902 744.14 653.882 743.859C663.143 743.438 663.564 743.578 668.896 748.772C672.544 752.282 675.07 756.493 676.613 761.687C678.157 766.6 679.42 778.813 680.402 794.675C681.244 810.819 681.244 830.191 680.262 848.019C679.56 863.46 678.297 878.481 677.455 881.429C676.754 884.236 673.947 888.869 671.422 891.676C667.914 895.607 665.528 896.87 660.617 897.432C657.109 897.853 651.777 897.432 648.69 896.449C645.603 895.466 625.398 885.921 603.789 875.112C571.656 859.249 563.378 855.74 558.467 855.74C555.099 855.74 548.504 857.564 542.751 859.951C537.279 862.197 531.666 864.162 530.123 864.162C528.579 864.162 522.966 862.197 517.494 859.951C512.022 857.564 505.146 855.74 502.059 855.74C497.709 855.74 487.607 860.091 455.334 876.094C421.798 892.94 412.958 896.73 406.644 897.291C400.61 897.853 397.944 897.432 394.717 895.466C392.472 893.922 389.104 889.992 387.42 886.623C385.596 883.113 383.491 876.515 382.509 871.883C381.246 865.987 380.685 847.738 380.685 812.223C380.685 762.389 380.825 760.845 383.772 754.668C385.596 750.878 388.683 747.368 391.489 745.684C394.997 743.718 397.944 743.297 403.837 743.859C410.152 744.42 418.29 747.93 450.142 764.214C471.33 775.023 491.255 784.568 494.342 785.551C499.253 787.095 500.656 786.955 506.549 784.288C511.601 782.041 513.565 780.357 514.267 777.549C514.828 775.023 513.284 765.898 510.057 752.562C507.251 741.051 503.883 725.189 502.62 717.468C501.03 708.109 500.188 694.306 500.095 676.057C500.095 661.036 500.375 645.876 500.937 642.366C501.919 636.049 501.919 636.049 495.324 631.276C491.676 628.75 486.063 623.275 482.695 619.344C479.328 615.414 474.978 608.676 472.873 604.464C470.207 598.99 468.944 593.936 468.523 586.917C468.243 580.179 468.804 574.704 470.488 569.37C471.751 565.159 474.276 559.122 476.101 556.034C477.784 552.946 481.994 547.331 485.361 543.4C488.589 539.61 495.184 533.012 499.814 529.082C504.585 525.011 513.705 518.975 520.3 515.465C526.895 512.096 535.314 508.165 539.243 506.902C543.032 505.639 555.66 502.129 567.306 499.041C578.812 495.953 596.633 490.899 606.595 487.67C616.558 484.442 625.959 480.652 627.222 479.248C629.186 477.283 629.607 475.177 629.046 470.123C628.625 466.333 627.643 456.787 626.941 448.646C626.099 440.504 624.135 426.326 622.732 417.061C621.328 407.796 617.821 392.354 615.014 382.668C612.208 372.982 607.016 358.804 603.228 351.083C599.579 343.363 594.247 333.255 591.301 328.623C588.354 323.991 582.601 316.129 578.532 311.076C574.463 306.022 566.886 298.442 561.553 294.09C556.221 289.739 548.644 284.264 544.856 282.018C540.927 279.631 534.613 276.543 530.824 274.859C526.895 273.314 518.336 270.366 511.46 268.401C499.393 264.751 498.972 264.471 484.099 250.433C475.82 242.712 465.577 233.868 461.367 231.061C457.158 228.113 448.458 223.2 442.004 219.971C435.689 216.883 425.306 212.671 418.851 210.847C412.537 209.022 401.312 206.495 394.015 205.091C385.035 203.407 369.881 202.424 347.711 202.003C329.61 201.582 315.017 201.582 315.438 202.003C315.859 202.424 322.173 206.354 329.469 210.706C336.766 215.198 349.394 222.779 357.533 227.692C365.671 232.465 373.529 237.799 375.072 239.483C377.458 242.01 377.598 242.712 375.774 243.695C374.651 244.537 371.424 245.099 368.758 245.099C366.092 245.099 360.058 246.081 355.428 247.345C350.798 248.608 340.975 252.679 333.679 256.329C326.382 260.119 314.315 267.559 307.019 272.753C299.722 277.947 288.637 287.352 282.463 293.529C276.289 299.705 267.87 309.251 263.801 314.585C259.732 320.06 253.277 330.729 249.489 338.449C245.42 346.732 241.21 358.523 238.965 367.227C236.58 377.194 235.036 387.722 234.475 399.513C234.054 409.34 234.475 425.062 235.317 435.31C236.299 445.276 238.544 462.683 240.509 473.913C242.333 485.144 246.682 505.919 250.05 520.238C253.418 534.556 262.258 566.141 269.694 590.427C277.131 614.712 286.673 646.016 291.023 659.913C295.232 673.811 301.827 696.271 305.616 709.747C309.404 723.223 314.736 743.859 317.542 755.37C320.349 767.021 325.4 790.324 328.768 807.309C332.135 824.295 336.766 850.826 339.151 866.268C341.396 881.709 344.624 905.714 346.307 919.611C347.991 933.509 349.956 945.581 350.517 946.283C351.078 946.985 357.813 949.792 365.391 952.459C373.108 954.986 387.841 959.198 398.225 961.865C408.608 964.532 428.252 968.322 441.723 970.428C464.174 973.937 469.927 974.218 509.075 974.218C542.751 974.358 555.941 973.797 570.814 971.831C581.198 970.428 596.071 968.041 603.789 966.497C611.506 964.953 623.854 962.146 631.151 960.321C638.447 958.496 653.04 954.004 663.424 950.354C673.807 946.844 690.224 940.247 699.906 935.895C709.588 931.684 725.023 923.682 734.284 918.348C743.544 913.013 756.734 904.872 763.75 900.239C770.766 895.607 783.956 885.921 793.217 878.902C802.478 871.743 815.667 860.653 822.683 854.336C829.699 847.878 836.855 841 838.82 838.894C840.784 836.929 846.958 830.191 852.711 824.155C858.464 817.978 868.146 806.608 874.32 798.887C880.494 791.166 890.737 776.988 897.191 767.302C903.506 757.616 913.328 741.472 918.66 731.506C924.132 721.539 931.85 705.676 935.779 696.411C939.707 687.146 945.601 671.284 948.968 661.317C952.336 651.35 956.966 635.207 959.352 625.521C961.737 615.835 964.824 600.113 966.508 590.427C968.051 580.741 969.876 565.299 970.717 556.034C971.559 546.769 972.121 526.555 972.121 511.113C972.121 495.672 971.138 474.475 970.016 464.087C968.893 453.699 966.648 438.258 965.105 429.695C963.421 421.132 960.334 406.953 958.089 398.11C955.844 389.266 951.775 375.369 948.968 367.227C946.302 359.085 941.672 346.451 938.866 339.151C936.059 331.852 928.622 315.708 922.308 303.355C916.134 291.002 904.769 271.489 897.051 259.838C889.474 248.327 876.845 230.92 868.988 221.234C861.27 211.548 847.379 196.107 838.118 186.842C828.857 177.577 814.545 164.522 806.547 157.924C798.408 151.327 785.78 141.641 778.483 136.447C771.187 131.112 757.857 122.549 749.017 117.355C740.177 112.021 723.058 103.037 711.131 97.1409C699.204 91.3855 681.805 83.8051 672.544 80.2957C663.283 76.9266 648.129 71.873 638.868 69.2059C629.607 66.5387 612.488 62.3274 600.983 60.0814C589.336 57.6949 571.376 54.747 560.992 53.624C550.609 52.3606 531.385 51.0972 518.196 50.8165C505.006 50.3953 486.765 50.6761 477.504 51.378C468.243 52.0799 451.124 54.0451 439.618 55.7297V55.7297Z" fill="currentColor"/>
<path d="M514.688 0.421132C510.478 0.701886 503.883 0.701886 499.954 0.421132C496.026 0.140377 499.533 0 507.672 0C515.81 0 518.897 0.140377 514.688 0.421132Z" fill="currentColor" fill-opacity="0.46"/>
<path d="M348.412 201.161C345.325 201.441 340.554 201.441 337.888 201.161C335.222 200.88 337.748 200.599 343.501 200.599C349.254 200.599 351.499 200.88 348.412 201.161Z" fill="currentColor" fill-opacity="0.74"/>
<path d="M511.18 976.043C508.093 976.324 503.322 976.324 500.656 976.043C497.99 975.762 500.516 975.481 506.269 975.481C512.022 975.481 514.267 975.762 511.18 976.043Z" fill="currentColor" fill-opacity="0.74"/>
<path fill-rule="evenodd" clip-rule="evenodd" d="M364.549 341.959C368.758 341.959 374.792 342.801 377.879 343.784C380.825 344.626 385.456 347.574 387.982 350.101C390.507 352.487 392.472 355.435 392.191 356.418C391.77 357.541 387.28 358.383 378.44 358.804C366.794 359.506 363.987 360.208 354.726 364.84C348.973 367.648 340.695 373.263 336.345 377.334C331.995 381.405 325.541 389.406 322.033 395.022C318.384 400.496 314.175 405.69 312.631 406.533C311.088 407.375 308.703 407.936 307.299 407.936C306.037 408.077 303.932 407.094 302.809 405.69C300.985 403.725 300.985 402.462 302.529 396.285C303.371 392.214 306.598 385.055 309.544 380.142C312.351 375.228 317.823 367.929 321.752 363.858C325.541 359.927 331.855 354.453 335.784 351.785C339.572 349.118 345.887 345.89 349.815 344.486C353.604 343.082 360.339 342.099 364.549 341.959V341.959ZM568.71 372.842C575.164 372.842 578.953 373.684 584.706 376.632C588.915 378.878 593.967 382.528 595.791 384.774C597.755 387.02 600.562 391.793 602.105 395.302C603.508 398.812 605.192 404.427 605.613 407.936C606.034 412.007 605.332 417.201 603.649 422.676C601.684 429.274 599.439 432.783 593.405 438.819C588.354 443.873 583.443 447.242 579.935 448.365C576.848 449.207 571.797 450.049 568.71 450.049C565.623 450.049 560.852 449.488 558.186 448.646C555.52 447.944 550.188 444.715 546.399 441.346C542.611 437.977 538.261 432.783 536.717 429.695C535.034 426.326 533.63 420.149 533.21 414.253C532.929 408.779 533.35 401.76 534.192 398.531C535.034 395.162 537.84 389.828 540.366 386.599C543.032 382.949 547.943 379.019 552.573 376.632C558.467 373.684 562.255 372.842 568.71 372.842V372.842ZM570.674 396.145C570.674 398.11 572.358 400.637 574.463 401.9C577.409 404.006 578.532 404.146 581.479 402.602C584.004 401.339 584.846 399.794 584.846 396.004C584.846 392.495 584.004 390.67 582.04 389.687C580.496 388.845 578.813 388.283 578.111 388.283C577.55 388.283 575.585 389.266 573.761 390.389C571.656 391.933 570.534 393.899 570.674 396.145V396.145ZM384.193 419.728C389.244 420.009 396.12 421.413 399.628 422.957C403.136 424.36 408.468 428.151 411.414 431.239C414.361 434.187 418.15 439.521 419.693 443.031C421.938 447.663 422.64 452.295 422.64 460.578C422.78 469.562 422.079 473.212 419.272 479.388C417.308 483.6 412.958 489.495 409.45 492.584C405.942 495.812 400.329 499.603 396.822 501.147C392.752 502.972 387.42 503.954 381.387 503.954C374.932 503.954 370.442 503.112 365.952 501.006C362.444 499.322 357.112 495.812 354.025 493.145C350.377 490.057 347.009 485.144 344.343 479.388C341.537 473.071 340.414 468.158 340.414 462.683C340.414 458.472 341.116 452.295 341.958 448.926C342.8 445.698 345.606 440.363 348.132 437.135C350.657 433.766 355.849 428.993 359.638 426.466C363.566 423.939 368.618 421.272 370.863 420.57C373.108 419.868 379.142 419.447 384.193 419.728V419.728ZM386.719 443.311C386.859 445.417 387.982 448.225 389.104 449.348C390.227 450.471 392.331 451.453 393.735 451.453C394.997 451.453 397.523 450.471 399.347 449.348C401.031 448.225 402.434 446.119 402.434 444.715C402.434 443.452 401.452 440.925 400.329 439.1C398.926 437.135 396.822 436.012 394.296 436.012C392.191 436.012 389.525 436.714 388.403 437.696C387.28 438.679 386.578 441.206 386.719 443.311Z" fill="currentColor"/>
</svg>
