<svg version="1.2" xmlns="http://www.w3.org/2000/svg" viewBox="0 0 512 512" width="512" height="512">
	<title>file</title>
	<path id="Path 0" fill-rule="evenodd" fill="currentColor" d="m160.5 0.2l94.5-0.1c92.8-0.1 94.6-0.1 103 2 4.7 1.1 11.9 3.4 16 4.9 4.1 1.6 11.1 5.2 15.5 8.1 4.4 2.8 11.3 8.4 15.4 12.3 4 3.9 10 11.1 13.2 16.1 3.3 5 7.4 12.6 9 17 1.7 4.4 4 11.8 5 16.5 1.1 5.1 1.9 12.5 1.9 18.5 0 6.9-0.7 13.2-2.4 20.5-1.3 5.8-4.1 14.3-6.3 19-2.1 4.7-5.4 10.7-7.3 13.5-1.8 2.7-5.4 7.4-7.9 10.4-2.5 3-7.9 8.1-19.1 17.1l4.3 3.2c2.3 1.7 6.6 5.4 9.5 8.2 2.9 2.8 7.5 8 10.2 11.6 2.6 3.6 6.8 10.6 9.2 15.5 2.7 5.5 5.5 13.4 7.2 20.5 2.6 10.4 2.8 12.7 2.3 24-0.3 8.1-1.3 15.3-2.6 20.5-1.2 4.4-4.2 12.3-6.7 17.5-2.5 5.2-6.7 12.4-9.4 16-2.6 3.6-7.6 9.2-11.2 12.5-3.5 3.3-8.8 7.6-11.8 9.6-3 2-8.2 5-11.5 6.7-3.3 1.6-9.8 4.2-14.5 5.6-4.7 1.5-13.2 3.2-19 3.8-8 0.9-13 0.9-21-0.1-5.9-0.7-14.4-2.5-19.5-4.2-4.9-1.7-11.7-4.5-15-6.2-3.3-1.8-8.8-5.3-12.2-8-3.5-2.6-6.5-4.7-6.8-4.7-0.3 0-0.5 20.1-0.5 44.8 0 26.3-0.5 48.4-1.1 53.7-0.6 4.9-2.2 12.6-3.6 17-1.4 4.4-4.4 11.6-6.7 16-2.3 4.4-6.2 10.7-8.7 14-2.6 3.3-7.7 8.9-11.5 12.4-3.8 3.6-9.4 8-12.4 10-3 1.9-9.1 5.2-13.5 7.2-4.4 2.1-12.7 4.9-18.5 6.3-8.2 2.1-13 2.6-21.7 2.6-8.8 0-13.6-0.6-21.5-2.6-5.7-1.4-14.6-4.6-19.8-7-5.2-2.5-12.6-6.9-16.4-9.7-3.8-2.9-9.8-8.3-13.4-12.2-3.5-3.9-8.4-10.1-10.7-14-2.4-3.9-5.7-10.4-7.4-14.5-1.6-4.1-3.8-10.6-4.7-14.5-1.3-5-1.8-11-1.8-21 0-11.2 0.4-15.8 2.2-23 1.3-4.9 4-12.6 6.1-17 2-4.4 5.2-10.3 7.1-13 1.8-2.8 5.4-7.4 7.9-10.4 2.5-3 7.9-8.1 19.1-17.1l-4.2-3.2c-2.4-1.7-6.7-5.4-9.6-8.2-2.9-2.8-7.5-8-10.2-11.6-2.7-3.6-6.9-10.8-9.4-16-2.5-5.2-5.5-13.1-6.7-17.5-1.2-4.6-2.3-12.6-2.6-19-0.3-6.5 0-14 0.7-18.5 0.7-4.1 2.1-10.4 3.2-14 1.1-3.6 3.8-10.1 6-14.5 2.2-4.4 6.2-10.9 8.8-14.5 2.6-3.6 7.6-9.2 11.1-12.5 3.5-3.3 7.9-6.9 9.7-8 1.8-1.1 3.2-2.2 3.2-2.5-0.1-0.3-3.1-2.8-6.7-5.5-3.6-2.8-8.9-7.7-11.8-11-2.8-3.3-6.7-8.3-8.5-11-1.9-2.8-5.1-8.6-7.1-13-2.1-4.4-4.9-12.8-6.3-18.8-1.9-7.7-2.6-13.4-2.6-20.5 0-5.5 0.8-13.5 1.9-18.7 1-5 3.2-12.6 4.9-17 1.7-4.4 5.8-12.1 9-17 3.4-5.1 9.4-12.3 13.8-16.5 4.4-4.2 11.3-9.7 15.4-12.2 4.1-2.6 10.4-5.9 14-7.4 3.6-1.4 10.3-3.6 15-4.9zm-9.3 35.4c-3.7 1.4-9.6 4.5-13.2 6.8-3.6 2.4-8.4 6.4-10.8 9-2.3 2.5-5.8 7.2-7.9 10.3-2 3.2-4.6 8.5-5.9 11.8-1.2 3.3-2.7 9.6-3.3 14-0.8 5.4-0.8 10.4-0.2 15.5 0.5 4.1 1.7 9.7 2.6 12.5 1 2.7 3 7.5 4.6 10.5 1.6 3 4.8 7.8 7.1 10.6 2.4 2.8 7 7.2 10.3 9.8 3.3 2.6 8.7 6.1 12 7.6 3.3 1.6 8.9 3.6 12.5 4.4 5.2 1.3 13.7 1.6 43.8 1.6h37.2v-129c-53.9 0.2-72.3 0.6-75.8 1.1-3.4 0.5-9.2 2-13 3.5zm120.8 124.4c67.1 0 75.8-0.3 81-1.6 3.6-0.8 9.9-3.2 14-5.2 4.8-2.4 10.1-6.2 15-10.8 4.1-4 9.2-10 11.3-13.5 2.1-3.5 4.9-10 6.3-14.4 2-6.3 2.6-10.2 2.7-18 0-6.5-0.6-12.3-1.7-16.5-0.9-3.6-3-9.2-4.7-12.5-1.6-3.3-4.9-8.6-7.4-11.8-2.5-3.1-7.1-7.7-10.3-10.2-3.1-2.5-8.4-5.8-11.7-7.4-3.3-1.7-8.7-3.8-12-4.7-5.1-1.5-11.9-1.8-44.2-2.2l-38.1-0.4zm-125.5 37.9c-3.3 1.6-8.7 4.9-12 7.4-3.3 2.5-8 6.9-10.4 9.9-2.4 2.9-5.8 8.2-7.6 11.8-1.8 3.6-4.1 9.4-5.1 13-1.1 4.1-1.7 10.1-1.7 16 0 5.9 0.6 12 1.7 16 1 3.6 3 9 4.6 12 1.5 3 4.6 8 6.9 11 2.2 3 6.7 7.7 9.8 10.3 3.2 2.7 8.9 6.4 12.8 8.3 3.8 1.8 9.7 4.1 13 4.9 4.8 1.2 13.2 1.5 43.7 1.5h37.8v-128c-68.6 0.1-77.7 0.5-82 1.6-3.1 0.8-8.2 2.8-11.5 4.3zm158.5 1.6c-3.1 1.7-9.4 6.8-14.1 11.5-6.5 6.5-9.4 10.3-12.2 16-2 4.1-4.3 10.4-5.2 14-0.8 3.6-1.5 10.3-1.5 15 0 4.7 0.7 11.4 1.5 15 0.9 3.6 3.2 9.9 5.2 14 2.8 5.7 5.8 9.6 12.2 16 5.2 5.2 10.9 9.8 14.6 11.7 3.3 1.8 9.3 4.1 13.5 5.3 5.4 1.4 10.4 2 18 2 6.2 0 12.9-0.6 16.5-1.5 3.3-0.9 8.7-2.8 12-4.4 3.3-1.5 8.7-4.8 12-7.3 3.3-2.5 8-7.2 10.6-10.4 2.5-3.2 6-8.6 7.6-11.9 1.7-3.3 3.8-8.9 4.8-12.5 1-4 1.7-10.2 1.7-16 0-5.8-0.7-12-1.7-16-1-3.6-3.1-9.2-4.8-12.5-1.6-3.3-5.3-8.9-8.1-12.4-2.8-3.5-7.8-8.3-11.1-10.7-3.3-2.3-8.5-5.4-11.5-6.8-3.1-1.3-8.2-3.2-11.5-4-3.8-1-10.2-1.6-17-1.5-8.4 0-12.8 0.6-18.5 2.3-4.2 1.2-10 3.5-13 5.1zm-159.5 159c-3.9 1.9-9.3 5.4-12 7.7-2.8 2.3-7 6.5-9.4 9.3-2.3 2.7-6 8.6-8.1 13-2.1 4.4-4.4 10.5-5.1 13.5-0.7 3-1.3 9.6-1.2 14.5 0 5.3 0.7 11.7 1.7 15.5 1 3.6 3.3 9.4 5.1 13 1.8 3.6 5 8.8 7.2 11.5 2.2 2.8 6.8 7.2 10.4 9.9 3.5 2.7 9.5 6.4 13.4 8.1 3.8 1.8 9.4 3.9 12.5 4.6 3 0.7 9.5 1.3 14.5 1.2 5 0 11.8-0.7 15.5-1.6 3.5-0.9 10.2-3.5 14.7-5.7 6.3-3 10-5.7 15.5-11.2 4-4 9-10.2 11-13.8 2.1-3.6 4.8-9.4 6-13 2.1-6.2 2.2-8.2 2.4-44.7l0.1-38.3c-66.8 0.2-76.6 0.5-81.2 1.6-3.3 0.8-9.2 3-13 4.9z"/>
</svg>