<svg width="512" height="474" viewBox="0 0 512 474" fill="currentColor" xmlns="http://www.w3.org/2000/svg">
<path fill-rule="evenodd" clip-rule="evenodd" d="M97.9668 0.531774C92.9738 2.12677 89.0248 4.70078 86.5048 8.00578C84.6728 10.4078 72.6798 45.9948 44.8038 131.757C-4.0342 282.003 -0.295201 269.803 0.304799 276.943C0.888799 283.885 4.6038 291.961 9.1798 296.238C14.7808 301.471 249.879 471.707 253.017 472.801C255.061 473.514 256.907 473.506 259 472.776C260.666 472.196 277.428 460.529 296.25 446.85C315.073 433.171 368.498 394.388 414.973 360.666C461.448 326.944 500.955 297.96 502.766 296.257C504.577 294.554 507.277 290.68 508.766 287.648C511.011 283.076 511.461 280.856 511.401 274.636C511.333 267.556 508.993 259.963 469.646 139.164C436.913 38.6708 427.362 10.4488 425.165 7.73377C416.97 -2.39123 400.336 -2.31823 392.623 7.87677C390.671 10.4568 358.501 107.068 338.843 169.386L337.818 172.636H256.081H174.344L149.537 96.3858C121.794 11.1138 121.694 10.8218 118.838 7.19077C114.826 2.09177 103.95 -1.37823 97.9668 0.531774ZM126.389 100.398C138.993 139.304 149.504 171.699 149.746 172.386C150.095 173.375 140.313 173.636 102.973 173.636C65.6308 173.636 55.8518 173.375 56.2048 172.386C56.4508 171.699 66.9518 139.299 79.5408 100.386C92.1298 61.4728 102.665 29.6418 102.952 29.6478C103.238 29.6548 113.785 61.4928 126.389 100.398ZM432.446 100.386C445.047 139.299 455.543 171.699 455.771 172.386C456.1 173.374 446.432 173.636 409.639 173.636C384.038 173.636 362.902 173.298 362.672 172.886C362.18 172.005 408.221 29.6718 409.005 29.6498C409.298 29.6428 419.846 61.4728 432.446 100.386ZM157.973 197.082C157.973 197.328 172.832 243.293 190.993 299.229C209.154 355.164 223.892 401.023 223.743 401.138C223.595 401.253 190.173 358.623 149.473 306.405C108.773 254.187 72.8618 208.127 69.6718 204.05L63.8708 196.636H110.922C136.8 196.636 157.973 196.837 157.973 197.082ZM329.705 197.386C329.493 197.798 312.929 248.648 292.896 310.384C272.863 372.121 256.246 422.633 255.969 422.634C255.561 422.636 222.283 320.809 188.401 215.886L182.185 196.636H256.138C296.812 196.636 329.917 196.974 329.705 197.386ZM443.208 202.886C440.493 206.324 404.376 252.561 362.948 305.636C321.521 358.711 287.845 401.461 288.115 400.636C288.384 399.811 303.399 353.574 321.481 297.886L354.359 196.636H401.252H448.145L443.208 202.886ZM116.041 301.136C154.175 350.086 187.639 393.029 190.407 396.566C193.174 400.102 194.736 402.577 193.879 402.066C185.86 397.285 24.5498 278.802 23.7908 277.136C22.2958 273.855 43.5238 208.712 45.4218 210.754C46.1288 211.514 77.9068 252.186 116.041 301.136ZM478.58 242.347C488.374 272.382 489.133 275.257 487.86 277.493C486.787 279.377 318.675 402.636 317.179 402.636C316.986 402.636 319.224 399.559 322.151 395.799C369.97 334.367 467.459 209.636 467.654 209.636C467.796 209.636 472.713 224.356 478.58 242.347Z" fill="currentColor"/>
</svg>
