<svg width="600" height="600" viewBox="0 0 600 600" fill="none" xmlns="http://www.w3.org/2000/svg">
<path d="M24.5409 5.1353C27.5459 3.53297 31.8531 1.73035 34.0568 1.02933C37.2621 0.0278709 90.4507 -0.17242 564.942 0.128016L572.955 4.03369C578.464 6.63748 582.771 9.64185 586.578 13.5475C590.083 17.1528 593.589 22.0599 600 35.0788V565.049L596.093 573.061C593.589 578.068 590.083 582.975 586.578 586.581C582.771 590.486 578.464 593.491 564.942 600H35.0584L27.0451 596.094C21.5359 593.491 17.2287 590.486 13.4224 586.581C9.91653 582.975 6.41068 578.068 0 565.049V35.0788L3.90651 27.0672C6.51085 21.9598 9.81636 17.1528 13.4224 13.5475C16.5275 10.443 21.5359 6.63748 24.5409 5.1353Z" fill="#FAE100"/>
<path d="M269.449 96.2677C274.357 95.3664 282.27 94.1647 286.978 93.7641L286.981 93.7638C291.688 93.3633 296.394 92.9629 297.496 92.8628C298.598 92.8628 304.608 93.2634 310.818 93.7641C316.928 94.365 325.543 95.4666 329.85 96.3679C334.057 97.1691 342.07 99.3723 347.579 101.175C353.089 103.078 361.703 106.583 366.611 109.086C371.519 111.49 379.933 116.397 385.142 119.902C390.351 123.407 398.664 130.117 403.573 134.824C408.481 139.531 415.292 146.941 418.698 151.348C422.204 155.754 427.513 163.666 430.618 168.873C433.723 174.081 438.03 182.894 440.134 188.402C442.237 193.91 444.741 200.92 445.543 203.924C446.444 206.929 447.947 213.538 448.848 218.445C450.15 224.755 450.651 232.366 450.651 243.482C450.751 255.399 450.25 261.708 448.848 268.017C447.846 272.724 445.643 280.335 444.04 285.042C442.437 289.749 438.831 298.061 436.227 303.569C433.523 309.077 428.514 318.09 425.008 323.598C421.503 329.106 415.192 338.119 410.985 343.627C406.878 349.135 398.965 358.749 393.556 365.058C388.047 371.267 380.334 380.481 376.327 385.588C372.321 390.596 365.209 400.31 360.601 407.22C355.993 414.13 348.982 425.647 344.975 432.757C340.968 439.867 334.958 451.885 331.553 459.295C328.147 466.706 322.838 479.325 319.833 487.336C316.828 495.348 313.623 503.86 312.721 506.364C311.82 508.868 310.217 512.072 309.015 513.574C307.913 515.177 305.409 516.779 303.306 517.38C300.902 517.981 298.197 517.981 295.993 517.38C294.09 516.879 291.486 515.477 290.284 514.175C289.082 512.873 286.077 505.963 283.472 498.853C280.868 491.743 276.26 479.925 273.255 472.815C270.25 465.705 264.441 453.287 260.334 445.275C256.327 437.263 250.017 425.847 246.411 419.738C242.705 413.629 236.194 403.815 231.786 397.706C227.479 391.597 219.566 381.783 214.357 375.674C209.149 369.565 200.234 359.05 194.624 352.14C189.015 345.23 180.902 334.214 176.594 327.604C172.287 320.994 166.978 312.182 164.775 308.076C162.671 303.97 159.366 296.759 157.462 292.052C155.559 287.346 152.755 278.633 151.152 272.524C148.447 262.309 148.247 260.206 148.347 243.482C148.347 228.961 148.748 223.553 150.551 215.441C151.753 209.933 153.856 201.821 155.359 197.415C156.761 193.008 159.967 185.097 162.471 179.889C164.875 174.682 169.883 165.869 173.589 160.361C177.296 154.853 184.608 145.84 189.816 140.432C195.025 135.024 202.738 128.014 206.845 124.909C210.952 121.805 216.561 117.799 219.366 116.097C222.07 114.394 227.98 111.189 232.387 108.986C236.795 106.783 244.908 103.378 250.417 101.475C255.927 99.5725 264.541 97.2692 269.449 96.2677Z" fill="#007DFF"/>
<path d="M281.97 197.515C284.474 196.513 289.382 195.412 292.888 195.011C296.394 194.711 302.504 194.711 306.411 195.111C311.719 195.612 315.626 196.814 321.536 199.818C327.546 202.722 331.152 205.426 335.86 210.334C339.566 214.239 343.272 219.447 344.975 223.252C346.578 226.657 348.381 231.865 348.982 234.769C349.583 237.573 350.083 242.28 350.083 244.984C350.083 247.788 349.583 252.395 348.982 255.299C348.381 258.103 346.578 263.311 344.975 266.816C343.372 270.321 339.566 275.729 336.26 279.334C332.454 283.24 327.846 286.845 323.439 289.248C319.633 291.251 314.524 293.354 312.02 294.055C309.516 294.656 303.706 295.257 298.998 295.157C292.988 295.157 288.581 294.556 283.973 293.054C280.367 291.852 275.459 289.649 272.955 288.047C270.451 286.444 265.943 282.539 262.838 279.334C259.733 276.129 256.027 271.122 254.624 268.318C253.122 265.414 251.219 260.406 250.417 257.302C249.616 254.097 248.915 248.589 248.915 244.984C248.915 241.379 249.616 235.871 250.417 232.766C251.219 229.562 253.122 224.554 254.624 221.75C256.027 218.846 259.532 214.039 262.337 211.035C265.142 208.03 269.75 204.225 272.454 202.422C275.259 200.72 279.466 198.416 281.97 197.515Z" fill="#FAE100"/>
</svg>
