<svg width="634" height="667" viewBox="0 0 634 667" fill="currentColor" xmlns="http://www.w3.org/2000/svg">
<path fill-rule="evenodd" clip-rule="evenodd" d="M36.715 1.04002C24.278 3.13102 12.429 11.94 6.19701 23.73C-0.394989 36.201 0.0360133 14.696 0.0230133 332C0.0160133 500.093 0.390013 622.795 0.919013 626C3.81001 643.517 14.327 657.417 29.672 664L35.5 666.5L210.409 666.761C401.803 667.047 388.745 667.431 391.02 661.448C392.69 657.055 390.554 654.489 377.405 645.088L364.694 636L205.097 635.978C50.474 635.957 45.37 635.897 41.316 634.057C38.684 632.861 36.088 630.579 34.316 627.902L31.5 623.646V333.396V43.147L33.562 40.385C34.696 38.866 36.866 36.696 38.385 35.562L41.147 33.5L249.915 33.243L458.684 32.986L462 35.243C463.824 36.484 466.257 38.77 467.408 40.323L469.5 43.146L470 184.162L470.5 325.177L472.861 327.089C474.792 328.652 476.85 329 484.16 329C494.079 329 498.356 327.534 499.359 323.79C500.445 319.736 500.072 45.06 498.971 38C496.811 24.144 487.819 11.489 475.812 5.40502C464.51 -0.321984 477.802 -0.00998279 250.54 0.118017C135.568 0.182017 39.347 0.597018 36.715 1.04002ZM142.861 88.911C140.732 90.634 140.466 91.759 140.155 100.373L139.81 109.924L124.33 109.712L108.851 109.5L106.425 112.306C104.295 114.771 104 116.082 104 123.101C104 130.251 104.258 131.349 106.455 133.545L108.909 136H153.407C183.89 136 198.673 135.65 200.343 134.89C203.782 133.323 205 129.954 205 122.009C205 116.281 204.615 114.664 202.731 112.474C200.463 109.837 200.457 109.836 185.828 109.939L171.194 110.042L170.847 100.432C170.382 87.562 169.741 87 155.5 87C146.872 87 144.842 87.307 142.861 88.911ZM217 97C215.043 98.957 215 100.333 215 161.389C215 235.424 213.591 228.311 228.361 228.845C237.474 229.174 238.015 229.075 240.451 226.64L243 224.091V200.045V176H252C264.288 176 265 175.273 265 162.723C265 149.513 264.53 149 252.443 149H243V124C243 93.251 243.844 95 229 95C220.333 95 218.733 95.267 217 97ZM294.235 98.037C291.163 99.271 290 102.833 290 111.009C290 116.839 290.368 118.317 292.413 120.694L294.825 123.5L335.508 123.793L376.192 124.086L375.481 135.793C375.089 142.232 374.471 149.3 374.107 151.5L373.445 155.5L325.239 155.76L277.034 156.019L275.502 158.356C274.478 159.919 273.945 163.298 273.89 168.566C273.815 175.908 273.99 176.595 276.483 178.739L279.156 181.039L351.167 180.769L423.177 180.5L425.089 178.139C426.609 176.261 427 174.166 427 167.889C427 156.567 426.28 156 411.885 156H400.77L401.403 150.75C402.399 142.485 403.969 117.236 403.985 109.205C403.998 102.781 403.707 101.616 401.545 99.455L399.091 97L347.795 97.063C319.486 97.098 295.485 97.534 294.235 98.037ZM146.387 140.989C127.65 143.771 113.079 155.668 109.95 170.741C105.404 192.638 121.072 211.83 146.241 215.193C167.82 218.077 187.606 209.274 195.499 193.278C199.478 185.214 200.111 173.933 197.043 165.798C190.701 148.985 167.864 137.8 146.387 140.989ZM147.001 164.123C138.343 167.576 134.416 178.25 139.024 185.808C143.112 192.512 155.177 195.029 163.624 190.94C171.42 187.166 174.179 176.848 169.218 170.023C165.079 164.331 153.914 161.367 147.001 164.123ZM291.536 192.35C289.532 193.815 288.24 202.835 289.382 207.384C290.836 213.18 289.343 213 336.071 213H379V217.5V222H336.073H293.145L291.073 224.635C289.13 227.104 289 228.547 289 247.588C289 269.196 289.495 271.993 293.657 273.89C295.349 274.66 312.915 275 351.093 275H406.091L408.545 272.545C410.655 270.436 411 269.164 411 263.5C411 257.986 410.63 256.539 408.735 254.644L406.471 252.38L361.735 252.704L317 253.029V248.014V243H360.326H403.651L405.826 240.686C407.919 238.458 408 237.568 408 216.908C408 199.101 407.735 195.066 406.443 193.223L404.887 191H349.134C303.906 191 293.034 191.255 291.536 192.35ZM127.501 222C122.201 223.697 122 224.616 122 247.144C122 269.881 122.472 272.272 127.287 273.95C129.246 274.633 149.141 275 184.199 275C243.205 275 243.173 275.003 244.689 269.232C245.597 265.776 245.619 256.307 244.727 252.921C243.469 248.145 241.983 248 194.453 248H150V236.655C150 222.55 149.7 222.159 138.399 221.5C134.055 221.247 129.151 221.472 127.501 222ZM463.5 348.647C436.518 351.775 416.373 358.859 395.463 372.572C361.298 394.979 335.93 433.008 328.311 473.242C325.828 486.356 325.818 519.008 328.294 531.248C331.435 546.773 334.949 557.221 341.498 570.5C361.9 611.866 401.643 643.447 445.163 652.876C479.344 660.282 518.306 655.911 547.124 641.438C591.37 619.216 621.946 579.445 631.673 531.464C634.232 518.84 634.249 485.186 631.702 473C622.977 431.246 599.54 396.245 564.67 372.894C544.606 359.458 523.249 351.96 496.789 349.063C487.725 348.071 470.347 347.854 463.5 348.647ZM91.916 353.258C87.056 356.504 84.805 361.348 85.262 367.57C85.674 373.179 87.857 376.827 92.5 379.666C95.355 381.412 100.871 381.513 206.83 381.767C281.685 381.947 319.427 381.693 322.027 380.993C333.611 377.874 337.177 363.711 328.552 355.085L324.967 351.5L210.15 351.238L95.333 350.975L91.916 353.258ZM463.058 380.122C424.785 384.556 387.577 411.072 369.658 446.681C360.741 464.402 358.034 475.339 357.331 496.5C356.715 515.037 358.127 526.087 363.027 541.083C372.82 571.056 395.855 597.913 423.849 611.994C441.884 621.066 459.229 625.228 479 625.228C535.757 625.228 586.07 586.61 599.634 532.632C603.431 517.524 604.036 495.623 601.083 480.199C595.972 453.499 584.249 431.945 564.659 413.228C537.734 387.503 501.435 375.675 463.058 380.122ZM92.241 423.995C85.245 428.26 83.021 437.2 87.01 445.019C91.032 452.903 86.808 452.5 165.5 452.5H235.5L239.08 450.274C244.342 447.001 246.378 442.575 245.805 435.659C245.457 431.468 244.702 429.308 242.917 427.397C237.673 421.783 240.784 422 165.3 422.004C97.414 422.007 95.411 422.062 92.241 423.995ZM542.836 439.017C536.324 440.155 540.187 436.511 491.71 487.247L457.555 522.994L437.028 502.569C423.771 489.379 415.505 481.898 413.69 481.449C409.465 480.403 402.107 481.537 399.136 483.692C397.686 484.744 395.41 487.779 394.078 490.438C391.762 495.062 391.719 495.501 393.078 500.566C394.413 505.535 396.048 507.43 419.711 531.434C433.577 545.499 446.578 558.131 448.601 559.504C452.87 562.401 460.37 562.894 464.86 560.572C468.316 558.785 556.251 468.007 560.318 462.027C562.788 458.396 562.51 451.046 559.75 446.99C555.442 440.66 549.49 437.855 542.836 439.017ZM95.5 492.722C91.978 493.623 88.296 496.857 86.511 500.618C84.057 505.789 84.828 514.119 88.083 517.603C93.381 523.274 88.366 523 186.99 523C274.597 523 278.222 522.927 281.79 521.095C286.627 518.612 289.231 514.055 289.231 508.074C289.231 502.299 287.09 497.913 282.765 494.829L279.5 492.5L188.5 492.356C138.45 492.276 96.6 492.441 95.5 492.722Z" fill="currentColor"/>
</svg>
