<svg width="722" height="748" viewBox="0 0 722 748" fill="currentColor" xmlns="http://www.w3.org/2000/svg">
<path fill-rule="evenodd" clip-rule="evenodd" d="M465 3.02904C444.375 4.57504 411.3 7.02304 391.5 8.46904C371.7 9.91404 349.875 11.52 343 12.036C313.57 14.248 231.367 20.294 193.5 23.032C170.95 24.662 140.8 26.89 126.5 27.982C112.2 29.074 86.55 30.884 69.5 32.004C34.336 34.315 29.045 35.387 18.895 42.252C11.327 47.371 6.02599 54.699 2.80299 64.5L0.5 71.5V312.5C0.5 510.99 0.738005 554.68 1.85201 560.188C4.32801 572.441 5.384 574.057 63.859 655C69.621 662.975 78.385 675.125 83.336 682C103.404 709.869 118.171 728.955 123.269 733.615C133.653 743.105 146.372 748 160.644 748C167.531 747.999 227.374 744.98 249.5 743.517C260.838 742.767 303.67 740.283 336 738.501C361.668 737.086 372.916 736.419 437 732.508C450.475 731.686 477.475 730.126 497 729.042C655.962 720.217 683.991 718.423 690.5 716.66C705.878 712.493 716.434 701.806 720.411 686.375C721.83 680.871 721.99 653.756 721.989 418.875C721.987 203.263 721.752 156.625 720.644 152.5C718.631 145.004 714.382 137.325 709.671 132.662C705.831 128.864 667.308 99.497 585.845 38.268C568.984 25.595 553.115 13.799 550.58 12.055C538.252 3.57303 526.406 -0.0659628 511.688 0.109037C506.635 0.169037 485.625 1.48304 465 3.02904ZM520.068 43.593C527.703 45.832 531.438 48.301 564.853 73.194C616.953 112.006 616 111.242 616 114.212C616 117.998 614.375 118.189 553.5 121.54C489.304 125.074 460.396 126.692 411 129.518C387.075 130.887 339.15 133.586 304.5 135.518C269.85 137.449 223.113 140.136 200.64 141.489C156.689 144.135 150.327 143.965 139.319 139.846C132.169 137.171 129.08 135.011 93.29 107.655C59.367 81.726 58 80.593 58 78.41C58 75.324 64.462 74.196 94 72.122C162.044 67.346 258.062 60.381 316 56.018C323.425 55.459 338.725 54.331 350 53.512C403.897 49.598 456.521 45.644 476 44.044C504.344 41.716 513.355 41.624 520.068 43.593ZM670.848 167.715C673.315 168.921 675.235 170.957 676.764 173.99L679.028 178.481L678.764 416.99C678.47 682.334 679.131 659.166 671.676 665.711C665.052 671.527 678.719 670.353 517 679.005C486.475 680.639 453.625 682.436 444 683.001C434.375 683.565 406.025 685.149 381 686.522C355.975 687.895 328.3 689.458 319.5 689.996C301.911 691.071 244.06 694.381 215 695.974C204.825 696.533 188.381 697.484 178.458 698.089C159.395 699.252 155.505 698.855 148.006 694.98C143.024 692.407 137.479 686.327 134.799 680.5C132.559 675.628 132.486 674.505 131.966 636.5C131.135 575.807 131.056 283.403 131.861 246L132.581 212.5L135.241 207.38C139.715 198.771 145.877 194.629 156.685 192.969C160.433 192.393 202.875 189.905 251 187.439C299.125 184.974 366.85 181.403 401.5 179.504C436.15 177.605 477.55 175.354 493.5 174.501C509.45 173.648 534.376 172.282 548.891 171.465C563.405 170.648 588.38 169.27 604.391 168.401C620.401 167.533 638.9 166.456 645.5 166.009C660.257 165.009 666.122 165.404 670.848 167.715ZM556 245.027C548.575 245.417 530.575 246.277 516 246.937C486.766 248.26 479.72 249.121 476 251.825C468.438 257.322 468.07 271.54 475.367 276.321C476.818 277.272 483.967 279.386 491.253 281.019C498.539 282.651 505.513 284.224 506.75 284.513L509 285.038V392.188V499.338L499.25 484.872C482.871 460.569 468.503 439.42 454.686 419.273C428.758 381.468 411.214 355.84 380.703 311.202C363.674 286.288 348.306 264.81 346.552 263.472C341.695 259.767 335.509 258 327.399 258C323.356 258 298.564 259.151 272.304 260.557C220.175 263.35 219.429 263.469 216.577 269.478C214.692 273.452 214.546 280.545 216.279 283.97C218.116 287.599 222.956 290.46 229.618 291.852C242.071 294.456 249.528 296.28 250.214 296.892C250.607 297.242 250.978 365.237 251.038 447.992C251.143 592.729 251.078 598.483 249.324 599.188C248.321 599.592 242.22 601.537 235.767 603.511C219.197 608.58 214.682 612.966 214.672 624.004C214.662 634.265 218.998 637.984 231 638.007C239.648 638.025 308.511 634.461 326.874 633.046C345.913 631.579 351.977 627.65 352.774 616.263C353.111 611.449 352.788 609.924 350.815 607C347.784 602.507 342.945 600.868 323.777 597.841L309.055 595.516L308.777 477.008C308.625 411.829 308.551 358.374 308.614 358.22C308.789 357.788 387.142 475.804 448.85 569.445C464.701 593.498 477.894 612.479 480.23 614.589C482.446 616.591 486.789 619.415 489.88 620.865C495.422 623.464 495.784 623.498 516 623.341C556.796 623.025 568.503 619.652 571.956 607.219C572.647 604.732 572.991 549.938 572.994 441.778L573 280.056L578.75 278.433C600.307 272.348 604.373 269.274 604.456 259C604.511 252.126 602.55 247.336 598.909 245.453C595.83 243.861 580.945 243.713 556 245.027Z" fill="currentColor"/>
</svg>
