<svg width="638" height="693" viewBox="0 0 638 693" fill="currentColor" xmlns="http://www.w3.org/2000/svg">
<path fill-rule="evenodd" clip-rule="evenodd" d="M25.438 0.937992C20.454 2.12999 12.089 7.13399 8.782 10.901C7.088 12.83 4.532 16.904 3.101 19.954L0.5 25.5V336.5C0.5 640.64 0.542007 647.61 2.41701 652.472C4.82101 658.704 11.923 666.388 18.48 669.85L23.5 672.5H256.014H488.528L498.014 667.906C503.231 665.38 508.932 662.103 510.683 660.624C518.762 653.799 517.085 640.115 507.619 635.623C502.307 633.103 498.753 633.641 490.298 638.25L482.5 642.5L257.653 642.489L32.806 642.478L30.903 640.128C29.042 637.83 29 631.151 29 335.946V34.113L31.223 32.557C33.212 31.163 50.781 31 199.031 31C339.874 31 364.906 31.211 366.544 32.409C368.405 33.769 368.471 35.666 368.485 87.736L368.5 141.654L371.302 145.328C376.599 152.275 374.019 152 433.95 152H488L488.006 226.25C488.009 276.227 488.363 301.769 489.089 304.381C490.581 309.756 498.596 317.646 503.497 318.565C508.318 319.47 513.332 317.143 516.003 312.763C517.95 309.569 517.992 307.621 517.951 221C517.92 154.252 517.614 131.816 516.705 129.716C515.307 126.487 395 4.58099 390.506 1.84099C387.619 0.0799915 380.4 0.0109909 208 0.105991C109.275 0.159991 27.122 0.534992 25.438 0.937992ZM440.438 96.75L466.486 123H432.743H399L399.012 88.75L399.023 54.5L406.707 62.5C410.933 66.9 426.112 82.313 440.438 96.75ZM117 143.006C110.005 143.804 94.244 149.15 89.735 152.254C81.537 157.898 82.341 170.579 91.241 176.005C95.825 178.801 101.262 178.498 111.059 174.901C122.108 170.844 128.946 171.199 144.5 176.635C154.728 180.21 156.272 180.477 166.5 180.447C176.912 180.417 178.035 180.204 187.5 176.472C196.511 172.92 198.341 172.539 206 172.625C213.112 172.705 216.214 173.329 225 176.443C242.009 182.471 254.544 182.458 269.164 176.396C272.279 175.104 277.004 173.563 279.664 172.971C285.37 171.701 290.187 168.646 292.405 164.891C294.611 161.157 294.453 153.207 292.102 149.641C287.246 142.275 279.732 141.163 267.218 145.957C250.865 152.221 246.367 152.329 229.94 146.851C218.348 142.985 216.75 142.703 206.5 142.715C196.268 142.726 194.644 143.016 183.228 146.864C167.506 152.163 163.877 152.19 147.798 147.127C134.293 142.875 126.864 141.881 117 143.006ZM91.367 226.913C87.459 229.302 85.25 232.393 83.912 237.34C83.021 240.638 83.201 241.83 85.187 245.788C86.459 248.322 88.77 251.319 90.323 252.448C93.137 254.493 93.662 254.501 243.823 254.759C389.09 255.009 394.626 254.951 398 253.157C407.617 248.045 408.842 235.782 400.515 228L397.839 225.5L246.17 225.248C98.237 225.003 94.423 225.044 91.367 226.913ZM382 294.148C330.031 299.543 283.86 333.985 262.946 382.96C252.332 407.815 248.549 438.355 252.539 466.968C259.114 514.108 289.645 556.608 332.531 578.317C351.639 587.99 370.247 592.71 393.077 593.674C425.831 595.058 454.502 587.532 481 570.593L487.5 566.438L494.755 574.085L502.01 581.731L500.505 585.334C498.962 589.027 498.597 597.128 499.834 600.25C500.215 601.213 519.839 621.33 543.443 644.955C588.863 690.414 589.785 691.186 600.374 692.638C618.506 695.123 638.014 678.049 637.994 659.712C637.982 648.265 639.635 650.318 591.665 602.181C567.374 577.805 546.191 557.169 544.591 556.323C542.559 555.248 540.293 554.969 537.072 555.396L532.461 556.008L524.615 548.116L516.769 540.224L523.21 531.255C539.041 509.207 547.694 485.345 550.154 456.956C553.863 414.141 538.113 370.498 508.019 340.201C473.37 305.319 429.352 289.233 382 294.148ZM92.209 306.668C83.187 311.114 80.811 322.54 87.389 329.845C92.214 335.204 88.746 335 175.2 334.996C253.563 334.993 255.579 334.945 258.759 333.005C263.959 329.835 266.18 325.432 265.72 319.209C265.266 313.065 262.903 309.288 257.929 306.752C254.749 305.13 248.738 305.005 175 305.024C103.718 305.043 95.16 305.213 92.209 306.668ZM416.558 325.477C469.123 334.003 512.045 378.059 519.092 430.719C520.758 443.169 519.705 461.156 516.599 473.294C503.101 526.042 455.285 563.023 400.619 562.994C381.086 562.984 361.217 558.7 346.763 551.382C320.824 538.25 297.59 511.673 288.577 484.824C284.311 472.115 282.813 463.232 282.282 447.5C281.717 430.725 283.051 420.281 287.599 405.864C301.031 363.293 340.582 330.155 384.5 324.674C392.039 323.733 408.32 324.141 416.558 325.477ZM91.241 385.995C81.582 391.884 81.582 406.116 91.241 412.005C94.39 413.926 96.383 413.993 150.5 413.995C201.823 413.997 206.791 413.851 209.98 412.248C220.405 407.011 220.643 392.141 210.396 386.266L206.5 384.033L150.5 384.02C96.369 384.008 94.391 384.074 91.241 385.995ZM92.804 464.776C81.149 470.211 80.693 486.075 92.017 492.149C95.259 493.887 98.845 493.999 150.984 493.984L206.5 493.967L210.396 491.734C215.76 488.658 218.225 483.861 217.744 477.43C217.285 471.291 214.896 467.721 209.434 465.015C205.507 463.069 203.515 463.001 150.934 463.026C101.538 463.05 96.158 463.212 92.804 464.776Z" fill="currentColor"/>
</svg>
