<svg width="800" height="235" viewBox="0 0 800 235" fill="none" xmlns="http://www.w3.org/2000/svg">
<path fill-rule="evenodd" clip-rule="evenodd" d="M93.3076 0.0305556C118.808 -0.0694444 119.008 -0.0694449 123.808 2.43056C126.808 4.03056 129.308 6.23056 130.608 8.63056C131.808 10.7306 134.708 18.7306 137.008 26.4306C139.308 34.1306 142.708 45.5306 148.008 62.9306L156.808 65.5306C161.608 66.9306 169.108 69.8306 173.508 71.8306C177.908 73.9306 183.008 76.9306 184.808 78.5306C187.508 80.8306 188.108 82.0306 187.808 84.4306C187.608 86.7306 186.608 87.8306 184.008 89.1306C181.208 90.5306 177.908 90.9306 154.008 90.9306V107.931L158.208 110.131C160.808 111.631 163.108 113.831 164.408 116.431C165.908 119.431 166.408 122.131 166.408 127.431C166.308 132.031 165.508 136.431 164.008 140.431C162.408 144.531 160.108 148.031 156.708 151.431C153.708 154.331 150.208 159.331 148.208 163.431C146.408 167.231 143.808 171.931 140.008 176.931L162.308 199.731C175.708 213.431 185.508 224.231 187.008 227.131C189.208 231.231 189.308 231.931 188.008 233.331C186.708 234.831 182.308 235.031 145.208 234.931C122.608 234.931 103.808 234.631 103.608 234.131C103.308 233.731 108.108 224.731 114.108 214.231C120.108 203.631 124.808 194.231 124.508 193.431C124.108 192.131 123.108 192.331 118.208 194.431C115.108 195.731 111.908 196.931 111.208 196.931C110.608 196.931 105.708 204.231 100.308 213.231C95.0076 222.131 89.8076 230.631 87.0076 234.931H44.7076C7.80762 235.031 2.30762 234.831 1.20762 233.431C0.207617 232.231 0.307617 231.331 1.60762 228.631C2.50762 226.931 12.5076 216.231 24.0076 204.931C35.4076 193.631 45.9076 182.631 50.0076 176.431L45.5076 167.631C41.5076 159.831 40.5076 158.731 36.3076 156.631C33.8076 155.431 30.3076 152.831 28.7076 150.931C27.0076 149.031 24.5076 144.931 23.1076 141.931C21.2076 137.831 20.5076 134.331 20.2076 127.931C19.9076 120.431 20.1076 118.831 22.2076 114.931C24.0076 111.531 25.7076 109.831 34.0076 105.931V90.9306H20.2076C8.30762 90.9306 6.10762 90.6306 3.20762 88.9306C1.20762 87.6306 0.00761648 86.1306 0.00761648 84.6306C-0.0923835 83.4306 0.807616 81.3306 1.80762 79.9306C2.80762 78.5306 7.90762 75.3306 13.1076 72.7306C18.3076 70.1306 26.4076 66.9306 40.0076 62.9306L42.0076 56.1306C43.1076 52.4306 46.6076 40.4306 50.0076 29.4306C53.3076 18.4306 56.8076 8.33056 57.7076 7.03056C58.7076 5.83056 61.3076 3.63056 63.5076 2.43056C67.4076 0.130555 68.2076 0.0305556 93.2076 0.0305556H93.3076ZM58.0076 97.7306C56.8076 101.431 54.3076 108.131 52.5076 112.731C50.6076 117.231 48.6076 120.931 48.1076 120.931C47.5076 120.931 45.7076 119.831 44.1076 118.431C42.4076 117.031 39.8076 115.931 38.1076 115.931C36.4076 115.931 34.2076 116.831 33.1076 117.931C31.5076 119.531 31.1076 121.231 31.1076 126.231C31.1076 129.631 31.7076 134.231 32.4076 136.431C33.0076 138.631 35.2076 142.031 37.1076 144.031C39.3076 146.331 42.1076 148.031 44.4076 148.631C48.0076 149.331 48.5076 149.931 52.2076 157.731C55.0076 163.531 58.1076 168.031 62.8076 173.031C67.4076 177.731 71.6076 181.031 75.6076 183.031C78.9076 184.631 84.3076 186.431 87.6076 187.031C90.9076 187.631 96.8076 187.931 100.608 187.631C104.408 187.331 109.808 186.231 112.608 185.231C115.308 184.231 120.108 181.631 123.008 179.431C126.008 177.231 130.508 172.731 132.908 169.431C135.308 166.131 138.708 159.931 140.408 155.531C142.308 151.031 144.408 147.331 145.608 146.731C146.708 146.131 148.908 144.531 150.408 143.031C151.908 141.631 153.808 138.231 154.708 135.431C155.508 132.731 156.108 128.831 156.108 126.931C156.108 125.031 155.308 122.331 154.408 121.031C152.908 119.031 152.008 118.731 148.808 119.331L145.108 119.931C143.408 99.4306 142.808 92.8306 142.508 92.2306C142.208 91.2306 133.008 90.9306 101.208 90.9306H60.2076L58.0076 97.7306ZM71.0076 200.231C74.8076 204.731 79.7076 210.331 81.9076 212.531L85.9076 216.531C89.9076 209.931 92.2076 206.131 93.6076 204.031C95.0076 201.831 96.1076 199.531 96.1076 199.031C96.1076 198.431 94.2076 198.031 91.8076 198.031C89.5076 198.031 84.9076 197.331 81.6076 196.431C78.3076 195.631 73.2076 193.831 70.3076 192.531C67.4076 191.231 64.8076 190.531 64.5076 191.031C64.3076 191.531 67.2076 195.731 71.0076 200.231ZM725.208 33.9306C727.308 34.0306 730.308 34.6306 731.808 35.3306C733.308 36.1306 737.208 37.9306 740.308 39.3306C743.508 40.8306 746.508 42.9306 747.108 44.0306C747.608 45.1306 748.108 46.9306 748.108 48.0306C748.108 49.1306 747.508 51.4306 746.708 53.2306C745.808 55.2306 745.108 61.9306 744.708 71.0306C744.408 78.9306 744.608 90.0306 745.208 95.5306C745.808 101.031 746.408 112.431 746.508 121.031C746.608 129.531 747.408 140.731 748.308 146.031C749.708 154.031 749.708 156.731 748.608 164.031C748.008 168.631 746.908 172.631 746.208 172.731C745.608 172.831 745.108 175.031 745.108 178.031C745.108 180.731 744.608 183.031 744.108 183.031C743.508 183.031 743.108 183.931 743.108 185.031C743.108 186.131 742.408 187.631 741.608 188.531C740.808 189.331 740.308 190.531 740.508 191.231C740.808 191.931 740.508 192.931 740.008 193.531C739.408 194.031 739.008 196.831 739.008 199.731C739.108 203.731 738.608 205.431 737.108 207.031C736.008 208.131 735.308 209.131 735.508 209.231C735.708 209.331 734.708 209.531 733.308 209.631C731.808 209.731 730.008 209.431 729.308 208.931C728.608 208.431 727.208 208.231 726.108 208.531C725.008 208.731 723.808 208.331 723.308 207.531C722.908 206.831 721.508 206.031 720.108 205.831C717.908 205.531 717.508 204.831 717.108 200.931C716.808 198.331 716.008 195.531 715.308 194.631C714.608 193.731 714.308 191.531 714.608 189.731C714.808 187.931 715.908 184.431 717.008 182.031C718.108 179.531 719.108 176.131 719.108 174.531C719.108 172.831 720.108 168.531 721.208 165.031C723.008 159.631 723.408 156.231 723.308 145.531C723.208 138.331 722.908 131.231 722.608 129.731C722.208 127.631 721.608 127.131 720.308 127.531C719.408 127.831 716.908 129.631 714.808 131.531C712.808 133.431 711.108 135.431 711.108 136.031C711.108 136.531 710.708 136.931 710.308 136.931C709.908 136.931 709.008 138.331 708.308 139.931C707.608 141.631 705.808 143.631 704.308 144.431C702.808 145.231 700.808 146.131 699.808 146.431C698.908 146.731 698.108 147.931 698.108 149.031C698.108 150.131 697.608 151.031 697.108 151.031C696.508 151.031 695.908 152.131 695.608 153.531C695.308 154.831 694.608 156.031 694.108 156.031C693.508 156.031 693.308 156.531 693.608 157.231C693.908 157.931 690.308 162.531 685.708 167.531C681.008 172.431 677.208 177.031 677.108 177.731C677.108 178.431 676.608 179.031 676.108 179.031C675.508 179.031 673.608 180.531 671.808 182.531C670.008 184.431 667.808 186.031 666.808 186.031C665.908 186.031 664.108 186.531 662.808 187.131C661.008 188.031 659.508 187.831 655.108 186.131C651.708 184.831 648.108 182.431 645.808 180.031C643.808 177.831 641.608 176.031 641.108 176.031C640.508 176.031 639.908 174.531 639.608 172.731C639.308 170.931 638.008 167.131 636.608 164.231C635.208 161.331 634.108 158.531 634.108 158.031C634.108 157.431 633.708 156.231 633.208 155.231C632.808 154.231 631.408 150.531 630.108 147.031C628.908 143.431 627.508 138.931 626.908 137.031C626.408 135.031 625.608 131.931 625.108 130.031C624.608 128.031 623.508 123.831 622.708 120.531C621.908 117.231 621.108 113.931 621.108 113.231C621.108 112.531 621.608 112.031 622.308 112.031C623.008 112.031 624.608 110.631 625.808 109.031C627.108 107.331 629.008 106.031 630.108 106.031C631.508 106.031 632.308 106.831 632.608 108.731C633.008 110.231 633.608 112.131 634.008 113.031C634.508 113.831 635.508 114.931 636.208 115.331C637.008 115.931 640.108 115.731 644.108 115.031C649.908 113.831 651.108 113.131 655.808 108.331C659.008 105.131 660.908 102.431 660.608 101.531C660.308 100.531 661.408 99.0306 663.308 97.6306C665.108 96.2306 667.908 93.3306 669.608 91.0306C671.208 88.8306 672.408 86.7306 672.108 86.4306C671.808 86.1306 670.308 86.4306 668.808 86.9306C667.308 87.5306 660.508 88.0306 653.608 88.0306C646.708 88.0306 640.308 87.5306 639.308 87.1306C638.408 86.6306 636.508 85.7306 635.108 85.2306C633.408 84.5306 632.608 83.4306 632.608 81.9306C632.608 80.6306 633.408 79.4306 634.608 78.9306C635.708 78.5306 637.508 77.2306 638.608 76.0306C639.708 74.8306 642.808 73.3306 645.608 72.5306C648.308 71.7306 655.208 70.6306 660.808 70.0306C666.508 69.4306 673.108 69.0306 675.608 69.0306C678.108 69.0306 681.308 69.7306 682.808 70.7306C684.308 71.6306 688.208 74.9306 691.308 77.9306C695.008 81.5306 697.108 84.3306 697.108 85.7306C697.108 87.4306 696.508 88.0306 694.808 88.0306C693.408 88.0306 691.708 89.3306 690.108 91.6306C688.708 93.6306 687.108 96.0306 686.608 96.9306C686.008 97.8306 684.108 100.831 682.408 103.531C680.608 106.231 679.108 109.431 679.108 110.531C679.008 111.631 679.708 113.131 680.608 114.031C681.508 114.831 682.208 116.231 682.108 117.231C682.108 118.431 680.108 119.731 675.608 121.531C672.008 122.831 668.208 124.031 667.108 124.031C666.008 124.031 662.908 124.831 660.308 125.931C657.708 127.031 655.008 128.931 654.308 130.231C653.208 132.031 653.208 133.331 654.108 137.031C654.808 139.431 655.408 141.931 655.508 142.531C655.708 143.031 656.308 144.731 656.908 146.231C657.608 147.731 658.108 149.931 658.108 151.031C658.108 152.131 658.508 152.731 659.108 152.531C659.608 152.231 660.308 153.131 660.608 154.531C660.908 155.831 661.508 157.031 662.108 157.031C662.608 157.031 663.508 158.331 665.108 163.031L670.108 157.731C672.908 154.831 675.108 152.131 675.108 151.731C675.108 151.331 676.008 150.731 677.108 150.531C678.208 150.231 679.608 148.631 680.308 146.931C681.108 145.231 682.308 143.931 683.308 143.931C684.308 143.931 685.108 143.631 685.108 143.231C685.008 142.831 688.008 139.331 691.508 135.531C695.108 131.631 698.008 128.031 698.008 127.531C698.108 126.931 699.408 125.331 701.108 124.031C702.708 122.631 704.108 120.931 704.108 120.231C704.108 119.531 705.408 117.831 707.108 116.531C708.708 115.131 710.108 113.531 710.108 113.031C710.108 112.431 710.808 112.031 711.608 112.031C712.408 112.031 713.408 110.731 713.708 109.231C714.108 107.731 715.708 105.031 717.508 103.131C720.008 100.531 720.608 98.9306 720.808 94.9306C721.008 92.2306 721.108 88.9306 721.108 87.7306C721.208 86.5306 721.208 78.3306 721.108 69.5306C721.108 60.7306 720.508 51.7306 719.908 49.5306C719.308 47.3306 718.908 43.5306 719.008 41.0306C719.108 38.6306 719.608 36.0306 720.208 35.3306C720.808 34.5306 723.108 34.0306 725.208 34.0306V33.9306ZM387.808 36.4306C389.908 36.5306 393.208 37.0306 395.108 37.7306C397.008 38.3306 399.808 40.0306 401.308 41.6306C402.808 43.1306 404.508 45.7306 405.108 47.4306C405.708 49.0306 406.208 55.3306 406.208 61.4306C406.208 67.4306 406.608 75.3306 407.308 78.9306C407.908 82.4306 408.408 86.5306 408.508 87.9306C408.608 89.2306 408.908 90.8306 409.308 91.4306C409.708 91.9306 409.608 93.0306 409.108 93.9306C408.608 94.7306 408.408 95.8306 408.608 96.4306C408.808 96.9306 409.208 101.031 409.608 105.431C409.908 109.831 410.408 113.731 410.608 114.131C410.908 114.531 410.608 117.231 410.108 120.131C409.608 123.031 409.008 127.531 408.908 130.131C408.708 132.831 409.008 134.831 409.608 134.831C410.208 134.831 410.108 135.331 409.508 136.131C408.908 136.831 408.308 138.031 408.308 138.931C408.308 139.731 408.108 142.431 407.808 144.931C407.508 147.331 406.808 150.631 406.208 152.131C405.608 153.631 404.608 154.931 404.108 154.931C403.508 154.931 403.308 155.331 403.608 155.931C403.908 156.431 403.608 156.931 403.108 156.931C402.508 156.931 402.108 157.831 402.108 158.931C402.108 160.131 402.508 160.631 403.308 160.131C404.108 159.631 404.308 160.231 403.808 162.631C403.308 164.831 403.508 165.931 404.308 165.931C405.208 165.931 405.208 166.131 404.308 167.131C403.608 167.831 403.108 168.931 403.108 169.631C403.108 170.331 403.508 170.631 404.108 170.431C404.608 170.131 405.108 170.231 405.108 170.631C405.108 171.031 404.208 171.931 403.108 172.631C401.908 173.331 401.108 173.431 401.108 172.931C401.108 172.264 400.441 172.264 399.108 172.931C397.208 173.831 397.208 173.931 398.808 175.931C399.808 177.031 401.408 177.931 402.308 177.931C403.708 177.931 403.908 178.431 403.408 180.131C403.108 181.331 402.408 182.931 401.908 183.631C401.508 184.331 400.608 184.631 400.108 184.431C399.508 184.131 399.108 185.231 399.108 186.931C399.108 188.931 399.808 190.331 401.308 191.231C403.208 192.331 403.508 193.331 403.308 196.731C403.208 199.031 403.408 200.931 403.808 200.931C404.208 200.931 404.708 202.031 404.808 203.431C405.008 204.731 404.608 205.931 404.108 205.931C403.508 205.931 401.708 207.231 400.108 208.931C397.408 211.631 397.008 211.731 396.108 210.131C395.441 208.997 394.874 208.764 394.408 209.431C393.908 210.031 392.008 210.431 390.108 210.331C388.208 210.231 386.408 210.131 386.108 210.031C385.808 210.031 385.008 208.831 384.308 207.431C383.608 206.031 382.608 198.631 382.108 190.931C381.508 183.231 381.308 176.531 381.508 176.131C381.808 175.731 382.008 169.331 382.308 148.431L378.508 147.831C376.208 147.531 373.708 147.831 372.608 148.531C371.408 149.231 366.208 149.931 360.408 150.131C352.108 150.331 350.008 150.131 348.408 148.731C347.408 147.831 346.008 145.131 345.208 142.731C344.108 139.031 344.108 137.931 345.208 135.431C346.508 132.731 347.208 132.331 352.108 131.831C355.108 131.631 358.108 131.031 358.808 130.631C359.508 130.231 360.108 128.731 360.108 127.431C360.108 126.031 360.708 124.531 361.408 124.131C362.208 123.731 364.108 121.131 365.608 118.431C367.208 115.631 369.108 112.831 369.808 112.131C370.508 111.431 370.908 110.031 370.608 108.931C370.208 107.431 370.808 106.631 372.608 105.931C374.008 105.331 375.108 104.431 375.108 103.931C375.108 103.331 374.508 102.631 373.808 102.331C373.108 101.931 370.808 102.831 368.608 104.131C366.408 105.531 361.108 110.131 356.708 114.531C352.408 118.831 348.408 123.331 347.708 124.531C347.108 125.631 345.508 128.631 344.208 131.031C342.808 133.431 339.908 137.431 337.608 139.931C335.208 142.331 332.708 145.731 331.808 147.431C331.008 149.031 328.808 151.831 326.908 153.631C325.108 155.431 322.508 157.531 321.108 158.331C319.708 159.131 317.508 160.331 316.108 160.931C314.408 161.731 310.108 161.831 302.608 161.231C296.508 160.831 291.408 160.431 291.108 160.431C290.808 160.331 289.608 159.931 288.308 159.631C286.908 159.131 285.808 157.731 285.308 155.731C284.908 154.031 284.008 152.131 283.308 151.531C282.608 150.931 282.008 149.731 282.108 148.931C282.108 148.031 281.608 146.931 281.008 146.431C280.408 145.831 279.908 142.231 279.908 138.431C279.908 132.731 280.408 130.131 282.808 124.931C284.508 121.331 288.408 114.531 291.508 109.931C294.708 105.231 298.308 100.231 299.608 98.9306C300.908 97.5306 303.108 94.1306 304.508 91.4306C306.008 88.6306 307.108 84.9306 307.108 83.1306C307.108 80.8306 307.708 79.5306 309.308 78.5306C310.608 77.7306 312.708 76.8306 314.108 76.5306C315.508 76.2306 317.708 76.6306 319.108 77.3306C320.508 78.1306 322.608 79.2306 323.808 79.8306C325.108 80.4306 326.508 81.8306 327.108 82.9306C327.608 84.0306 328.808 84.9306 329.608 84.9306C330.408 84.9306 330.908 85.2306 330.708 85.6306C330.408 86.0306 331.108 88.3306 332.208 90.6306C333.208 92.9306 334.508 94.6306 335.108 94.4306C335.608 94.1306 336.308 94.3306 336.608 94.9306C336.908 95.4306 338.208 95.9306 339.608 95.9306C341.308 95.9306 343.108 97.1306 348.608 103.731L354.108 100.631C357.108 99.0306 360.108 97.2306 360.808 96.7306C361.508 96.2306 362.608 96.2306 363.308 96.6306C364.174 97.0972 364.341 96.9306 363.808 96.1306C363.408 95.3306 363.708 94.9306 364.608 94.9306C365.408 94.9306 366.208 94.5306 366.308 94.1306C366.508 93.7306 369.208 92.1306 372.308 90.6306C375.508 89.1306 378.408 87.9306 378.808 87.9306C379.208 87.9306 380.508 87.2306 381.608 86.5306C383.408 85.2306 383.508 84.4306 382.808 76.7306C382.408 72.1306 381.908 65.9306 381.708 62.9306C381.408 59.8306 381.008 55.6306 380.608 53.4306C380.308 51.2306 379.608 47.9306 379.008 46.1306C378.308 43.6306 378.408 42.3306 379.808 40.3306C380.708 38.9306 382.008 37.5306 382.708 37.1306C383.408 36.7306 385.708 36.4306 387.808 36.4306ZM322.808 106.931C322.108 106.931 320.508 107.931 319.108 109.231C317.708 110.431 314.808 113.631 312.608 116.431C310.408 119.131 307.908 122.031 307.108 122.831C306.308 123.731 304.108 126.731 302.308 129.631C300.508 132.531 299.208 135.631 299.408 136.631C299.608 138.031 300.608 138.331 305.108 138.231C308.508 138.131 313.108 137.031 317.108 135.331C320.708 133.931 324.608 131.731 325.908 130.531C327.108 129.331 328.108 128.031 328.108 127.631C328.108 127.231 329.008 125.631 330.108 124.131C331.708 121.931 332.108 119.931 332.108 114.131C332.108 107.931 331.808 106.731 330.108 105.931C329.008 105.331 327.208 104.931 326.108 104.931C325.008 104.931 324.108 105.331 324.108 105.931C324.108 106.431 323.508 106.931 322.808 106.931ZM381.508 112.931C380.608 112.931 379.508 113.431 379.008 114.131C378.508 114.831 378.008 116.331 377.808 117.531C377.708 118.731 377.208 119.531 376.808 119.331C376.408 119.031 375.508 120.031 374.808 121.431C374.108 122.831 373.408 123.931 373.108 123.931C372.808 123.931 371.608 123.231 370.308 122.431C369.108 121.531 368.108 121.231 368.108 121.631C368.108 122.031 368.908 123.031 370.008 123.931C371.208 124.831 371.808 126.231 371.508 127.631C371.308 128.931 371.508 129.631 372.108 129.431C372.708 129.031 372.808 129.531 372.308 130.531C371.708 132.031 372.208 132.131 377.108 131.631C380.108 131.331 383.108 130.431 383.808 129.731C384.408 128.931 385.208 125.431 385.508 121.931C385.808 118.331 385.708 114.031 385.308 112.431C384.608 109.931 384.308 109.731 383.808 111.131C383.408 112.131 382.408 112.931 381.508 112.931ZM537.108 35.8306C539.008 35.8306 541.508 36.4306 542.608 37.2306C543.708 37.9306 546.508 39.0306 548.808 39.7306C551.208 40.3306 553.108 41.3306 553.108 41.9306C553.108 42.4306 554.008 43.1306 555.108 43.4306C556.208 43.6306 557.808 45.2306 558.608 46.9306C560.008 49.6306 559.908 50.2306 558.108 54.1306C556.208 57.9306 556.008 60.5306 555.908 79.4306C555.808 92.0306 556.208 101.931 556.908 104.431C557.508 106.731 557.808 113.331 557.108 132.931L559.808 133.531C561.308 133.831 563.908 133.631 565.608 133.031C567.208 132.431 569.508 131.931 570.608 131.931C571.708 131.831 573.908 131.231 575.608 130.331C577.208 129.531 579.108 128.831 579.808 128.831C580.508 128.831 580.908 129.431 580.808 130.131C580.608 130.831 581.808 132.431 583.508 133.631C585.208 134.831 589.308 137.131 592.608 138.731C595.908 140.331 600.908 143.631 609.008 150.431L606.308 153.631C604.208 156.231 602.808 156.931 600.308 156.931C598.508 156.931 596.208 157.331 595.108 157.931C593.608 158.631 591.308 158.231 586.108 156.431C582.208 155.031 579.108 153.431 579.108 152.931C579.108 152.331 575.408 150.131 570.808 147.931C566.308 145.831 561.808 143.831 560.808 143.431C559.208 142.931 559.208 143.431 559.808 149.131C560.208 152.531 560.508 156.531 560.408 157.931C560.308 159.231 560.108 161.931 559.808 163.931C559.608 165.831 559.308 168.631 559.208 170.131C559.208 171.631 558.408 173.531 557.608 174.431C556.708 175.331 556.108 177.531 556.208 180.131C556.308 182.631 555.908 184.531 555.208 184.631C554.608 184.731 554.108 185.831 554.108 186.931C554.108 188.031 553.408 189.531 552.608 190.431C551.808 191.231 551.308 192.531 551.608 193.431C551.908 194.231 551.608 195.131 551.108 195.431C550.508 195.631 550.208 196.931 550.208 198.131C550.308 199.331 550.308 202.031 550.208 204.131C550.208 206.231 549.408 208.531 548.608 209.431C547.808 210.231 547.308 211.031 547.508 211.131C547.708 211.231 546.508 211.331 544.708 211.331C543.008 211.331 540.608 210.831 539.308 210.131C537.508 209.131 537.108 209.131 537.108 210.131C537.108 210.931 536.508 210.731 535.408 209.631C534.408 208.731 532.608 207.931 531.308 207.931C530.108 207.931 528.908 207.231 528.608 206.431C528.308 205.531 528.108 203.531 528.108 201.931C528.108 200.231 527.308 197.731 526.308 196.231C524.608 193.731 524.708 193.331 527.208 185.531C528.708 181.031 530.808 173.331 532.008 168.431C533.108 163.431 534.308 157.731 534.608 155.631C534.908 153.031 534.708 151.831 533.808 151.831C533.108 151.831 531.908 152.531 531.108 153.331C530.308 154.231 529.408 154.731 529.108 154.431C528.808 154.131 528.008 154.431 527.208 155.131C526.408 155.831 525.008 156.431 524.208 156.431C523.308 156.431 512.008 161.731 499.108 168.231C486.208 174.731 473.308 181.131 470.608 182.631C466.608 184.631 464.108 185.131 458.108 185.231C454.008 185.231 448.308 184.731 445.608 183.931C442.808 183.131 438.908 181.331 436.808 179.931C434.708 178.531 432.808 176.731 432.508 175.931C432.208 175.031 432.408 173.131 432.808 171.531C433.208 169.931 434.308 168.231 435.108 167.831C435.908 167.431 440.008 167.331 444.108 167.631C450.808 168.031 452.208 167.831 457.608 165.331C460.908 163.831 463.708 162.531 463.808 162.431C463.908 162.431 464.308 161.231 464.608 159.931C464.908 158.531 465.708 156.731 466.408 155.931C467.008 155.031 468.208 153.231 469.008 151.931C469.808 150.531 471.408 147.631 472.508 145.431C473.608 143.231 474.608 140.731 474.708 139.931C474.908 138.631 473.608 138.431 460.308 138.431L456.208 133.931C453.908 131.431 452.108 128.631 452.108 127.631C452.108 126.631 451.108 124.531 449.808 122.831C448.608 121.031 446.108 118.231 444.308 116.531C442.508 114.831 441.008 112.931 441.008 112.431C441.008 111.831 440.108 109.631 439.108 107.431C438.008 105.231 437.108 102.831 437.108 102.131C437.108 101.431 436.108 99.0306 434.808 96.8306C433.608 94.6306 432.208 92.8306 431.808 92.8306C431.408 92.8306 431.108 92.2306 431.108 91.4306C431.108 90.5306 430.208 87.9306 429.208 85.6306C428.208 83.3306 427.108 79.2306 426.708 76.6306C426.408 74.0306 426.308 70.7306 426.608 69.4306C427.008 67.2306 427.808 66.8306 431.808 66.3306C434.908 65.9306 437.708 66.2306 439.508 67.0306C441.208 67.7306 443.608 69.5306 445.008 70.9306C446.408 72.3306 447.908 74.2306 448.308 75.1306C448.708 76.1306 449.508 76.9306 450.108 76.9306C450.608 76.9306 451.508 78.2306 452.108 79.9306C453.008 82.6306 453.408 82.8306 457.808 82.8306C460.408 82.8306 466.008 82.1306 470.108 81.3306C474.208 80.4306 478.708 79.5306 480.108 79.4306C481.508 79.2306 483.108 79.3306 483.608 79.7306C484.208 80.0306 485.508 81.5306 486.408 82.9306C487.308 84.2306 488.108 84.8306 488.108 84.1306C488.108 83.4306 488.608 83.0306 489.308 83.3306C490.008 83.5306 491.208 83.2306 491.908 82.5306C492.708 81.8306 493.108 78.5306 493.108 73.1306C493.108 68.6306 492.608 64.6306 492.108 64.4306C491.508 64.1306 491.108 61.7306 491.008 59.1306C491.008 55.8306 491.508 53.9306 492.708 52.9306C493.608 52.0306 495.608 51.4306 497.008 51.4306C498.408 51.4306 502.008 53.0306 505.008 54.9306C507.908 56.8306 511.208 59.8306 512.208 61.6306C513.708 64.2306 513.908 65.8306 513.308 69.5306C512.908 72.0306 512.108 74.4306 511.508 74.7306C510.908 75.1306 510.108 76.7306 509.708 78.4306C509.308 80.0306 508.808 83.4306 508.708 85.9306C508.608 88.3306 508.208 90.8306 508.008 91.4306C507.708 91.9306 507.608 94.2306 507.708 96.4306C507.708 98.6306 508.608 102.231 509.608 104.431C511.108 107.831 511.208 109.231 510.208 114.431C509.408 118.831 508.508 120.931 506.608 122.431C504.708 123.831 504.008 125.431 503.908 128.431C503.808 130.531 503.108 133.531 502.408 134.931C501.708 136.231 501.108 137.931 501.108 138.631C501.108 139.331 500.508 140.131 499.808 140.331C499.108 140.631 497.908 142.231 497.108 143.931C496.308 145.531 495.208 146.931 494.808 146.931C494.408 146.931 493.408 148.231 492.608 149.931C491.808 151.531 491.508 152.931 492.108 152.931C492.608 152.931 494.508 152.231 496.308 151.431C498.108 150.731 502.108 149.231 505.108 148.331C508.108 147.331 515.408 144.431 521.308 141.731C527.208 139.031 532.508 136.931 533.108 136.931C533.608 136.931 534.108 135.631 534.008 134.131C534.008 132.631 533.408 123.531 532.708 113.931C532.008 104.031 531.808 94.9306 532.308 93.1306C532.708 91.3306 532.808 89.3306 532.408 88.6306C532.108 87.9306 531.908 80.2306 531.908 71.4306C532.008 62.6306 531.608 53.6306 531.008 51.4306C530.408 49.2306 529.908 45.3306 530.008 42.9306C530.108 39.9306 530.708 37.9306 531.808 37.1306C532.808 36.4306 535.108 35.8306 537.108 35.8306ZM483.108 94.4306C482.508 94.1306 482.108 94.3306 482.108 94.9306C482.108 95.4306 481.008 95.9306 479.608 95.9306C478.208 95.9306 472.908 97.0306 467.808 98.4306C462.708 99.8306 458.508 101.031 458.308 101.131C458.208 101.231 459.708 103.631 461.608 106.431C464.008 109.931 464.908 111.931 464.408 113.431C463.908 114.831 464.108 115.131 464.908 114.631C465.608 114.231 466.808 114.531 467.608 115.431C468.408 116.231 469.408 116.931 469.808 116.931C470.208 116.931 471.008 117.631 471.608 118.431C472.508 119.831 473.108 119.731 477.108 118.031C479.608 117.031 482.708 114.931 484.108 113.531C485.508 112.031 487.908 110.331 489.408 109.631C491.908 108.531 492.208 108.031 491.708 104.931C491.408 102.931 490.508 100.731 489.608 99.9306C488.808 99.0306 488.108 97.7306 488.108 96.9306C488.008 96.0306 487.508 94.5306 486.808 93.4306C485.608 91.7306 485.408 91.7306 484.808 93.2306C484.408 94.1306 483.608 94.6306 483.108 94.4306ZM752.808 123.831C753.208 123.831 754.708 124.631 756.108 125.631C758.008 127.031 760.708 127.431 768.108 127.431C776.408 127.531 777.608 127.731 777.308 129.231C777.208 130.131 777.908 131.131 779.108 131.431C780.208 131.631 781.108 132.531 781.108 133.431C781.108 134.231 783.408 137.031 786.208 139.631C789.008 142.231 793.108 146.731 795.208 149.631C797.308 152.531 799.108 155.231 799.008 155.631C799.008 156.031 797.708 157.431 796.008 158.631C793.508 160.531 792.608 160.731 789.608 159.931C787.708 159.331 785.208 159.131 784.108 159.431C782.808 159.731 780.008 158.431 776.108 155.631C772.908 153.331 770.208 150.931 770.208 150.431C770.208 149.831 765.908 145.431 760.608 140.631C753.008 133.631 751.208 131.431 751.508 129.631C751.708 128.431 752.008 126.631 752.008 125.631C752.108 124.631 752.408 123.831 752.808 123.831ZM104.508 121.931C107.108 121.931 109.008 122.731 111.308 124.831C114.008 127.231 114.608 128.431 114.608 131.931C114.608 135.331 114.008 136.531 111.308 138.931C109.108 141.031 107.008 141.931 104.608 141.931C102.008 141.931 100.308 141.031 98.1076 138.931C95.7076 136.531 95.1076 135.031 95.2076 131.831C95.2076 128.731 95.9076 127.031 98.1076 124.831C100.208 122.631 101.908 121.931 104.508 121.931Z" fill="white"/>
</svg>
